# xmcd
#
# Track frame offsets: 
#        150
#        18382
#        29832
#        43915
#        60661
#        73523
#        84262
#        100488
#        115437
#        126612
#        146395
#        161882
#
# Disc length: 2310 seconds
#
# Revision: 3
# Processed by: cddbd v1.5.2PL0 Copyright (c) Steve Scherf et al.
# Submitted via: ExactAudioCopyFreeDBPlugin 1.0
#
DISCID=b309040c
DTITLE=Tião Carreiro e Pardinho - Em Tempo de Avanço
DYEAR=1969
DGENRE=Sertanejo
TTITLE0=A Beleza do Ponteio
TTITLE1=Quatro Horas
TTITLE2=Feliz Casamento
TTITLE3=Companheiro Do Ferreirinha
TTITLE4=Paisagens Do Sertão
TTITLE5=Canoeiro Do Mar
TTITLE6=Em Tempo De Avanço
TTITLE7=A Vida De Um Policial
TTITLE8=Nossa Senhora Da Guia
TTITLE9=O Justiceiro
TTITLE10=Minha Esposa Vale Ouro
TTITLE11=A Viola e o Violeiro
EXTD=YEAR: 1969
EXTT0=
EXTT1=
EXTT2=
EXTT3=
EXTT4=
EXTT5=
EXTT6=
EXTT7=
EXTT8=
EXTT9=
EXTT10=
EXTT11=
PLAYORDER=
